<svg xmlns="http://www.w3.org/2000/svg" width="48" height="48" viewBox="0 96 960 960"><path d="M394.515 793.84C286.835 686.581 221.96 594.093 197.182 512.517c-7.886-25.96-8.767-35.865-6.866-77.113 3.219-69.808 24.417-122.038 67.808-167.077 43.6-45.255 94.195-70.26 156.243-77.218 125.66-14.092 233.287 53.62 275.737 173.476 12.308 34.752 15.107 106.514 5.561 142.591-15.007 56.719-55.447 126.857-113.099 196.156-32.179 38.68-130.317 138.305-136.241 138.305-2.104 0-25.418-21.509-51.81-47.797zm82.696-283.365c27.178-14.199 45.06-49.193 39.336-76.975-6.62-32.118-39.425-59.66-71.063-59.66-20.194 0-47.909 15.046-58.978 32.019-24.05 36.874-14.083 78.843 24.401 102.745 14.794 9.188 50.376 10.192 66.304 1.87z" style="fill:#fc5b44;fill-opacity:1;stroke:#3d3d3f;stroke-width:30.06;stroke-dasharray:none;stroke-opacity:1"/><path d="M427.132 507.943c-9.842-1.848-18.914-7.065-28.892-16.613-14.26-13.646-21.303-28.563-21.303-45.12 0-12.675 5.54-28.444 13.917-39.62 10.727-14.31 38.475-28.229 56.277-28.229 23.443 0 50.957 18.232 62.937 41.705 5.356 10.494 5.375 10.581 5.326 23.742-.044 11.894-.433 14.13-3.91 22.445-8.476 20.27-25.575 37.08-41.971 41.262-7.454 1.9-33.158 2.16-42.38.429z" style="fill:#3d3d3f;fill-opacity:1;stroke:#3d3d3f;stroke-width:1.84399;stroke-dasharray:none;stroke-opacity:1"/></svg>