<svg xmlns="http://www.w3.org/2000/svg" width="27.122" height="34.12" viewBox="0 96 542.445 682.396"><path d="M219.99 715.57C112.31 608.31 47.435 515.821 22.657 434.245c-7.886-25.96-8.767-35.865-6.866-77.113 3.22-69.808 24.417-122.038 67.808-167.077 43.6-45.255 94.195-70.26 156.243-77.218 125.66-14.092 233.287 53.62 275.737 173.476 12.308 34.752 15.107 106.514 5.561 142.591-15.007 56.72-55.447 126.857-113.099 196.156-32.179 38.68-130.317 138.305-136.24 138.305-2.105 0-25.419-21.509-51.81-47.797zm82.696-283.366c27.178-14.199 45.06-49.193 39.336-76.975-6.62-32.118-39.425-59.66-71.063-59.66-20.194 0-47.909 15.046-58.978 32.02-24.05 36.873-14.083 78.842 24.401 102.744 14.794 9.188 50.376 10.192 66.304 1.87z" style="fill:#fc5b44;fill-opacity:1;stroke:#3d3d3f;stroke-width:30.06;stroke-dasharray:none;stroke-opacity:1"/><path d="M132.184 368.508V263.862h71.906l15.386-18.415 15.377-18.415h74.261l15.394 18.415 15.378 18.415h71.906v209.3H132.185zm160.73 67.436c41.16-12.315 61.353-58.965 42.93-99.204-16.242-35.48-62.234-49.762-98.579-30.614-40.378 21.28-48.404 79.653-15.476 112.58 10.298 10.29 23.692 17.164 37.258 19.132 10.727 1.547 25.026.75 33.867-1.894z" style="fill:#fd5b44;fill-opacity:1;stroke:#3d3d3f;stroke-width:29.106;stroke-dasharray:none"/><path d="M173.272 281.17h195.254v173.745H173.272z" style="fill:#fd5b44;stroke:#3d3d3f;stroke-width:0;stroke-dasharray:none"/><ellipse cx="274.077" cy="366.677" rx="56.089" ry="55.73" style="fill:#3d3d3f;fill-opacity:1;stroke:#3d3d3f;stroke-width:0;stroke-dasharray:none"/></svg>